<?xml version="1.0" encoding="UTF-8"?>
<svg id="Calque_2" data-name="Calque 2" xmlns="http://www.w3.org/2000/svg" viewBox="0 0 516.7 518.84">
  <defs>
    <style>
      .cls-1 {
        fill: #000;
        stroke-width: 0px;
      }
    </style>
  </defs>
  <g id="Calque_1-2" data-name="Calque 1">
    <g>
      <path class="cls-1" d="M243.14,196.65c8.42-7.55,16.93-15.08,25.35-22.73,45.83-41.67,91.7-83.3,137.38-125.14,6.04-5.53,9.88-2.58,14.48,2.67,4.65-4.26,9.04-8.33,13.47-12.35,7.89-7.17,9.29-7.11,16.67.6,1.23,1.28,2.42,2.6,4.24,4.56,19.31-14.85,38.43-29.55,57.55-44.25l.94.94c-16.36,17.63-32.73,35.26-48.97,52.77q10.71,15.05-3.52,27.33c-2.29,1.98-4.52,4.02-6.69,5.96,5.56,10.44,5.68,10.58-3.01,18.5-37.16,33.85-74.41,67.59-111.59,101.42-15.76,14.35-31.41,28.82-46.93,43.07.05.89-.11,1.51.13,1.83,7.95,10.18,7.89,10.39-1.57,19-54.25,49.39-108.46,98.82-162.71,148.21-14.08,12.81-28.09,25.71-42.54,38.08-2.75,2.35-7.45,2.39-11.22,3.6-1.81.58-3.76,1.1-5.26,2.18-18.55,13.39-42.69,10.97-58.42-5.96-14.47-15.58-14.5-40.06-.38-57.05,1.56-1.88,1.31-5.16,2.29-7.64,1.22-3.07,2.15-6.75,4.41-8.85,22.37-20.68,45.01-41.06,67.53-61.57,42.99-39.13,85.95-78.29,128.94-117.42,3-2.73,6.13-5.33,9.19-8.01,9.77-8.53,10.71-8.53,20.24.26ZM231.96,207.57c-67.26,61.16-134.33,122.15-201.78,183.49,16.51,18.12,32.33,35.49,48.53,53.27,67.71-61.57,134.78-122.56,201.78-183.48-16.35-17.95-32.03-35.17-48.52-53.28ZM318.87,206.51c-4.39-4.85-8.09-9.02-11.9-13.1-3.64-3.89-6.26-8.26-1.14-12.37,4.64-3.72,8.92-1.34,12.41,2.81,3.57,4.23,7.32,8.32,11.29,12.81,4.76-4.47,8.96-8.42,15.21-14.3-5.04-3.99-9.64-7.19-13.7-10.98-3.88-3.62-5.71-8.4-1.18-12.61,4.41-4.1,8.36-1.29,11.71,2.38,3.9,4.27,7.82,8.52,12.2,13.29,4.51-4.19,8.66-8.03,13.07-12.12-4.59-5.26-9.22-9.43-12.28-14.54-1.64-2.73-2.08-8.28-.38-10.45,3.11-3.95,7.58-2.44,11,1.32,4.05,4.45,8.29,8.74,12.96,13.63,4.48-4.22,8.59-8.09,12.87-12.12-4.31-4.92-7.8-9.29-11.71-13.24-3.82-3.86-4.89-7.89-1.02-11.91,4.31-4.49,8.22-1.97,11.59,1.73,4.02,4.43,7.96,8.93,12.13,13.61,4.75-4.17,8.88-7.79,13.73-12.04-4.68-5.04-9-9.57-13.19-14.22-3.34-3.72-4.26-8.46.18-11.04,2.47-1.44,7.87-.57,10.37,1.33,4.92,3.75,8.75,8.94,13.5,14.04,4.84-4.54,9.35-8.77,14.01-13.14-10.09-11.01-19.62-21.41-29.24-31.9-53.37,48.56-106.01,96.46-158.87,144.56,10.16,11.09,19.65,21.45,29.22,31.89,4.69-4.27,8.57-7.82,12.54-11.44-4.36-5.03-8.24-9.7-12.34-14.16-3.5-3.8-4.25-7.72-.31-11.31,4.17-3.79,7.91-1.7,11.14,1.88,4.04,4.48,8.09,8.95,12.28,13.58,4.84-4.14,9.06-7.75,13.88-11.88ZM441.74,51.79c-4.03,3.66-7.49,6.79-11.31,10.26,4.58,5.2,8.68,9.84,13.1,14.86,4.19-3.74,7.71-6.88,11.89-10.61-4.57-4.84-8.68-9.2-13.68-14.51Z"/>
      <path class="cls-1" d="M480.84,340.03c-22.49,20.44-44.99,40.88-67.48,61.33-40.78,37.06-81.56,74.13-122.34,111.19-9.31,8.46-10.7,8.51-19.1-.63-17.69-19.27-35.28-38.63-52.86-58-5.5-6.05-5.43-8.97.82-14.66,41.88-38.12,83.83-76.16,125.74-114.24,28.01-25.44,56-50.9,83.99-76.36,3.42-3.11,6.55-6.38,12.02-3.92,1.16.52,3.59-1.18,5.16-2.26,19.02-13.08,42.57-11.02,58.09,5.17,14.96,15.6,15.64,38.5,2.56,56.99-2.62,3.7-2.59,9.42-3.36,14.28-3.64,23.01-15.19,42.16-29.17,60.1-24.98,32.05-56.11,57.94-85.8,85.26-3.78,3.48-8.61,6.34-12.69,2.01-4.38-4.65-1.14-9.01,2.98-12.9,22.91-21.58,46.38-42.64,68.18-65.29,12-12.47,21.16-27.69,31.49-41.74,1.23-1.67,1.81-3.83,2.69-5.76-.31-.19-.61-.38-.92-.58ZM437.24,261.23c-68.45,62.25-136.22,123.88-204.43,185.91,16.54,18.2,32.69,35.97,49.14,54.08,68.47-62.28,136.36-124.02,204.49-185.99-16.52-18.13-32.54-35.72-49.2-54Z"/>
    </g>
  </g>
</svg>